<svg xmlns="http://www.w3.org/2000/svg" width="113" height="24" viewBox="0 0 113 24">
    <g fill="#FFF" fill-rule="evenodd">
        <path d="M107.331 23.154l-2.7-7.227h-3.284v7.227h-5.359V2.084h10.14c3.646 0 6.794 0 6.794 7.001 0 2.842-.788 4.748-2.41 5.827l-.585.388L113 23.154h-5.669zm-5.984-11.594h3.752c.738 0 2.466 0 2.466-2.475s-1.728-2.475-2.466-2.475h-3.752v4.95zM82.875 23.154V7.093h-5.113v-5.01h15.583v5.01h-5.113v16.06zM67.424 23.539c-3.215 0-6.477-.827-7.97-1.445l1.827-4.492c1.943.592 4.922.897 5.982.897 1.837 0 2.112-1.008 2.112-1.608 0-.519-.181-1.448-1.393-1.853-.5-.17-1.133-.235-1.866-.312-2.789-.292-6.26-.656-6.26-6.316 0-4.642 2.344-6.712 7.6-6.712 2.905 0 5.762.684 7.17 1.291L73.05 7.45c-1.539-.494-3.596-.781-4.975-.781-.443 0-.828.027-1.148.082-1.337.243-1.616 1.02-1.616 1.627 0 .576.248 1.334 1.43 1.672.441.113.966.168 1.573.23 2.886.298 6.837.705 6.837 6.515 0 4.602-2.455 6.744-7.727 6.744zM49.132 23.154H38.993V2.084h9.496l.912-.007c1.271 0 2.726.095 3.88.796 1.347.819 2.003 2.336 2.003 4.638 0 1.842-.662 3.268-2.023 4.363l-1.02.95 1.281.65c1.988.673 2.405 2.684 2.405 4.253 0 4.775-2.828 5.433-5.884 5.433l-.91-.006zm-4.78-12.847V6.643l3.4-.001c.594 0 2.174 0 2.174 1.833 0 .944-.45 1.386-.827 1.59-.413.224-.872.243-1.346.243h-3.402zm0 8.32v-3.665l3.398-.001c.595 0 2.176 0 2.176 1.834 0 .945-.45 1.387-.83 1.592-.412.223-.872.241-1.346.241H44.35zM25.606 24c-5.872 0-9.974-3.702-9.974-9.004 0-5.017 5.576-13.27 11.873-14.996-1.428 1.464-3.39 3.67-4.483 6.079-1.552 3.415-1.698 8.627-1.563 9.24l.219.988.93-.369a11.07 11.07 0 0 0 2.882-1.71 13.195 13.195 0 0 0 1.614-1.56c1.997-2.277 3.276-5.225 3.483-7.876C33.429 6.742 35.58 11 35.58 14.996c0 5.302-4.102 9.004-9.975 9.004zM0 23.154V2.084h5.358v16.06h7.01v5.01z"/>
    </g>
</svg>
